<mxfile host="app.diagrams.net" modified="2022-11-30T04:38:57.305Z" agent="5.0 (Windows NT 10.0; Win64; x64) AppleWebKit/537.36 (KHTML, like Gecko) Chrome/106.0.0.0 Safari/537.36 OPR/92.0.0.0" version="20.6.0" etag="Af3oR1CZmOhcUU26ExD2" type="github">
  <diagram id="s9oRnDyDO2uVDdjniJMa" name="Página-1">
    <mxGraphModel dx="1062" dy="584" grid="1" gridSize="10" guides="1" tooltips="1" connect="1" arrows="1" fold="1" page="1" pageScale="1" pageWidth="827" pageHeight="1169" math="0" shadow="0">
      <root>
        <mxCell id="0" />
        <mxCell id="1" parent="0" />
        <mxCell id="b7JfQbcfB2VG_5p9fEiK-1" value="" style="ellipse;whiteSpace=wrap;html=1;" vertex="1" parent="1">
          <mxGeometry x="180" y="160" width="110" height="60" as="geometry" />
        </mxCell>
        <mxCell id="b7JfQbcfB2VG_5p9fEiK-2" value="" style="ellipse;whiteSpace=wrap;html=1;" vertex="1" parent="1">
          <mxGeometry x="359" y="160" width="110" height="60" as="geometry" />
        </mxCell>
        <mxCell id="b7JfQbcfB2VG_5p9fEiK-3" value="" style="ellipse;whiteSpace=wrap;html=1;" vertex="1" parent="1">
          <mxGeometry x="359" y="260" width="110" height="60" as="geometry" />
        </mxCell>
        <mxCell id="b7JfQbcfB2VG_5p9fEiK-4" value="" style="ellipse;whiteSpace=wrap;html=1;" vertex="1" parent="1">
          <mxGeometry x="359" y="360" width="110" height="60" as="geometry" />
        </mxCell>
        <mxCell id="b7JfQbcfB2VG_5p9fEiK-5" value="" style="ellipse;whiteSpace=wrap;html=1;" vertex="1" parent="1">
          <mxGeometry x="469" y="440" width="110" height="60" as="geometry" />
        </mxCell>
        <mxCell id="b7JfQbcfB2VG_5p9fEiK-6" value="" style="ellipse;whiteSpace=wrap;html=1;" vertex="1" parent="1">
          <mxGeometry x="249" y="440" width="110" height="60" as="geometry" />
        </mxCell>
        <mxCell id="b7JfQbcfB2VG_5p9fEiK-7" value="" style="ellipse;whiteSpace=wrap;html=1;" vertex="1" parent="1">
          <mxGeometry x="550" y="260" width="110" height="60" as="geometry" />
        </mxCell>
        <mxCell id="b7JfQbcfB2VG_5p9fEiK-9" value="&lt;font style=&quot;font-size: 22px;&quot;&gt;início&lt;/font&gt;" style="text;html=1;strokeColor=none;fillColor=none;align=center;verticalAlign=middle;whiteSpace=wrap;rounded=0;" vertex="1" parent="1">
          <mxGeometry x="202.5" y="172.5" width="65" height="35" as="geometry" />
        </mxCell>
        <mxCell id="b7JfQbcfB2VG_5p9fEiK-10" value="&lt;font style=&quot;font-size: 22px;&quot;&gt;entrada&lt;/font&gt;" style="text;html=1;strokeColor=none;fillColor=none;align=center;verticalAlign=middle;whiteSpace=wrap;rounded=0;" vertex="1" parent="1">
          <mxGeometry x="364.75" y="171.25" width="98.5" height="37.5" as="geometry" />
        </mxCell>
        <mxCell id="b7JfQbcfB2VG_5p9fEiK-11" value="&lt;font style=&quot;font-size: 22px;&quot;&gt;teste 1&lt;/font&gt;" style="text;html=1;strokeColor=none;fillColor=none;align=center;verticalAlign=middle;whiteSpace=wrap;rounded=0;" vertex="1" parent="1">
          <mxGeometry x="364.75" y="271.25" width="98.5" height="37.5" as="geometry" />
        </mxCell>
        <mxCell id="b7JfQbcfB2VG_5p9fEiK-12" value="&lt;font style=&quot;font-size: 22px;&quot;&gt;teste 2&lt;/font&gt;" style="text;html=1;strokeColor=none;fillColor=none;align=center;verticalAlign=middle;whiteSpace=wrap;rounded=0;" vertex="1" parent="1">
          <mxGeometry x="364.75" y="371.25" width="98.5" height="37.5" as="geometry" />
        </mxCell>
        <mxCell id="b7JfQbcfB2VG_5p9fEiK-13" value="&lt;font style=&quot;font-size: 22px;&quot;&gt;update 1&lt;/font&gt;" style="text;html=1;strokeColor=none;fillColor=none;align=center;verticalAlign=middle;whiteSpace=wrap;rounded=0;" vertex="1" parent="1">
          <mxGeometry x="254.75" y="451.25" width="98.5" height="37.5" as="geometry" />
        </mxCell>
        <mxCell id="b7JfQbcfB2VG_5p9fEiK-14" value="&lt;font style=&quot;font-size: 22px;&quot;&gt;update 2&lt;/font&gt;" style="text;html=1;strokeColor=none;fillColor=none;align=center;verticalAlign=middle;whiteSpace=wrap;rounded=0;" vertex="1" parent="1">
          <mxGeometry x="474.75" y="451.25" width="98.5" height="37.5" as="geometry" />
        </mxCell>
        <mxCell id="b7JfQbcfB2VG_5p9fEiK-15" value="&lt;font style=&quot;font-size: 22px;&quot;&gt;final&lt;/font&gt;" style="text;html=1;strokeColor=none;fillColor=none;align=center;verticalAlign=middle;whiteSpace=wrap;rounded=0;" vertex="1" parent="1">
          <mxGeometry x="555.75" y="271.25" width="98.5" height="37.5" as="geometry" />
        </mxCell>
        <mxCell id="b7JfQbcfB2VG_5p9fEiK-17" value="" style="endArrow=classic;html=1;rounded=0;fontSize=22;strokeWidth=2;" edge="1" parent="1">
          <mxGeometry width="50" height="50" relative="1" as="geometry">
            <mxPoint x="300" y="190" as="sourcePoint" />
            <mxPoint x="350" y="190" as="targetPoint" />
          </mxGeometry>
        </mxCell>
        <mxCell id="b7JfQbcfB2VG_5p9fEiK-18" value="" style="curved=1;endArrow=classic;html=1;rounded=0;strokeWidth=2;fontSize=22;" edge="1" parent="1">
          <mxGeometry width="50" height="50" relative="1" as="geometry">
            <mxPoint x="170" y="210" as="sourcePoint" />
            <mxPoint x="170" y="180" as="targetPoint" />
            <Array as="points">
              <mxPoint x="130" y="210" />
              <mxPoint x="130" y="180" />
            </Array>
          </mxGeometry>
        </mxCell>
        <mxCell id="b7JfQbcfB2VG_5p9fEiK-19" value="" style="endArrow=classic;html=1;rounded=0;fontSize=22;strokeWidth=2;entryX=0.5;entryY=0;entryDx=0;entryDy=0;exitX=0.5;exitY=1;exitDx=0;exitDy=0;" edge="1" parent="1" source="b7JfQbcfB2VG_5p9fEiK-2" target="b7JfQbcfB2VG_5p9fEiK-3">
          <mxGeometry width="50" height="50" relative="1" as="geometry">
            <mxPoint x="410" y="230" as="sourcePoint" />
            <mxPoint x="439" y="240" as="targetPoint" />
          </mxGeometry>
        </mxCell>
        <mxCell id="b7JfQbcfB2VG_5p9fEiK-20" value="" style="endArrow=classic;html=1;rounded=0;fontSize=22;strokeWidth=2;entryX=0.5;entryY=0;entryDx=0;entryDy=0;exitX=0.5;exitY=1;exitDx=0;exitDy=0;" edge="1" parent="1">
          <mxGeometry width="50" height="50" relative="1" as="geometry">
            <mxPoint x="414" y="320" as="sourcePoint" />
            <mxPoint x="414" y="360" as="targetPoint" />
          </mxGeometry>
        </mxCell>
        <mxCell id="b7JfQbcfB2VG_5p9fEiK-21" value="" style="curved=1;endArrow=classic;html=1;rounded=0;strokeWidth=2;fontSize=22;" edge="1" parent="1">
          <mxGeometry width="50" height="50" relative="1" as="geometry">
            <mxPoint x="480" y="380" as="sourcePoint" />
            <mxPoint x="530" y="430" as="targetPoint" />
            <Array as="points">
              <mxPoint x="510" y="380" />
              <mxPoint x="530" y="400" />
            </Array>
          </mxGeometry>
        </mxCell>
        <mxCell id="b7JfQbcfB2VG_5p9fEiK-22" value="" style="curved=1;endArrow=classic;html=1;rounded=0;strokeWidth=2;fontSize=22;" edge="1" parent="1">
          <mxGeometry width="50" height="50" relative="1" as="geometry">
            <mxPoint x="353.25" y="381.25" as="sourcePoint" />
            <mxPoint x="303.25" y="431.25" as="targetPoint" />
            <Array as="points">
              <mxPoint x="323.25" y="371.25" />
              <mxPoint x="303.25" y="401.25" />
            </Array>
          </mxGeometry>
        </mxCell>
        <mxCell id="b7JfQbcfB2VG_5p9fEiK-23" value="" style="curved=1;endArrow=classic;html=1;rounded=0;strokeWidth=2;fontSize=22;" edge="1" parent="1">
          <mxGeometry width="50" height="50" relative="1" as="geometry">
            <mxPoint x="564.25" y="440" as="sourcePoint" />
            <mxPoint x="480" y="300" as="targetPoint" />
            <Array as="points">
              <mxPoint x="580" y="420" />
              <mxPoint x="550" y="330" />
            </Array>
          </mxGeometry>
        </mxCell>
        <mxCell id="b7JfQbcfB2VG_5p9fEiK-24" value="" style="curved=1;endArrow=classic;html=1;rounded=0;strokeWidth=2;fontSize=22;" edge="1" parent="1">
          <mxGeometry width="50" height="50" relative="1" as="geometry">
            <mxPoint x="260" y="440" as="sourcePoint" />
            <mxPoint x="350" y="290" as="targetPoint" />
            <Array as="points">
              <mxPoint x="240" y="390" />
              <mxPoint x="300" y="310" />
            </Array>
          </mxGeometry>
        </mxCell>
        <mxCell id="b7JfQbcfB2VG_5p9fEiK-25" value="" style="curved=1;endArrow=classic;html=1;rounded=0;strokeWidth=2;fontSize=22;entryX=0.364;entryY=-0.05;entryDx=0;entryDy=0;entryPerimeter=0;" edge="1" parent="1" target="b7JfQbcfB2VG_5p9fEiK-7">
          <mxGeometry width="50" height="50" relative="1" as="geometry">
            <mxPoint x="450" y="260" as="sourcePoint" />
            <mxPoint x="590" y="250" as="targetPoint" />
            <Array as="points">
              <mxPoint x="480" y="220" />
              <mxPoint x="560" y="220" />
            </Array>
          </mxGeometry>
        </mxCell>
        <mxCell id="b7JfQbcfB2VG_5p9fEiK-26" value="" style="curved=1;endArrow=classic;html=1;rounded=0;strokeWidth=2;fontSize=22;" edge="1" parent="1">
          <mxGeometry width="50" height="50" relative="1" as="geometry">
            <mxPoint x="670" y="306.25" as="sourcePoint" />
            <mxPoint x="670" y="276.25" as="targetPoint" />
            <Array as="points">
              <mxPoint x="720" y="311.25" />
              <mxPoint x="720" y="271.25" />
            </Array>
          </mxGeometry>
        </mxCell>
        <mxCell id="b7JfQbcfB2VG_5p9fEiK-28" value="&lt;font style=&quot;font-size: 14px;&quot;&gt;*i_go&lt;/font&gt;" style="text;html=1;strokeColor=none;fillColor=none;align=center;verticalAlign=middle;whiteSpace=wrap;rounded=0;fontSize=22;" vertex="1" parent="1">
          <mxGeometry x="80" y="175" width="60" height="30" as="geometry" />
        </mxCell>
        <mxCell id="b7JfQbcfB2VG_5p9fEiK-29" value="&lt;font style=&quot;font-size: 14px;&quot;&gt;i_go&lt;/font&gt;" style="text;html=1;strokeColor=none;fillColor=none;align=center;verticalAlign=middle;whiteSpace=wrap;rounded=0;fontSize=22;" vertex="1" parent="1">
          <mxGeometry x="293.25" y="160" width="60" height="30" as="geometry" />
        </mxCell>
        <mxCell id="b7JfQbcfB2VG_5p9fEiK-30" value="&lt;font style=&quot;font-size: 14px;&quot;&gt;i_x = i_y&lt;/font&gt;" style="text;html=1;strokeColor=none;fillColor=none;align=center;verticalAlign=middle;whiteSpace=wrap;rounded=0;fontSize=22;" vertex="1" parent="1">
          <mxGeometry x="530" y="190" width="60" height="30" as="geometry" />
        </mxCell>
        <mxCell id="b7JfQbcfB2VG_5p9fEiK-31" value="&lt;font style=&quot;font-size: 14px;&quot;&gt;o_Q = i_x&lt;/font&gt;" style="text;html=1;strokeColor=none;fillColor=none;align=center;verticalAlign=middle;whiteSpace=wrap;rounded=0;fontSize=22;" vertex="1" parent="1">
          <mxGeometry x="590" y="320" width="90" height="30" as="geometry" />
        </mxCell>
        <mxCell id="b7JfQbcfB2VG_5p9fEiK-33" value="&lt;font style=&quot;font-size: 14px;&quot;&gt;i_x != i_y&lt;/font&gt;" style="text;html=1;strokeColor=none;fillColor=none;align=center;verticalAlign=middle;whiteSpace=wrap;rounded=0;fontSize=22;" vertex="1" parent="1">
          <mxGeometry x="420" y="320" width="60" height="30" as="geometry" />
        </mxCell>
        <mxCell id="b7JfQbcfB2VG_5p9fEiK-34" value="&lt;font style=&quot;font-size: 14px;&quot;&gt;i_x &amp;gt; i_y&lt;/font&gt;" style="text;html=1;strokeColor=none;fillColor=none;align=center;verticalAlign=middle;whiteSpace=wrap;rounded=0;fontSize=22;" vertex="1" parent="1">
          <mxGeometry x="310" y="400" width="60" height="30" as="geometry" />
        </mxCell>
        <mxCell id="b7JfQbcfB2VG_5p9fEiK-35" value="&lt;font style=&quot;font-size: 14px;&quot;&gt;i_x &amp;lt; i_y&lt;/font&gt;" style="text;html=1;strokeColor=none;fillColor=none;align=center;verticalAlign=middle;whiteSpace=wrap;rounded=0;fontSize=22;" vertex="1" parent="1">
          <mxGeometry x="463.25" y="400" width="60" height="30" as="geometry" />
        </mxCell>
        <mxCell id="b7JfQbcfB2VG_5p9fEiK-36" value="&lt;font style=&quot;font-size: 14px;&quot;&gt;i_x = i_x - i_y&amp;nbsp;&lt;/font&gt;" style="text;html=1;strokeColor=none;fillColor=none;align=center;verticalAlign=middle;whiteSpace=wrap;rounded=0;fontSize=22;" vertex="1" parent="1">
          <mxGeometry x="238.5" y="500" width="131" height="30" as="geometry" />
        </mxCell>
        <mxCell id="b7JfQbcfB2VG_5p9fEiK-37" value="&lt;font style=&quot;font-size: 14px;&quot;&gt;i_y = i_y- i_x&lt;/font&gt;" style="text;html=1;strokeColor=none;fillColor=none;align=center;verticalAlign=middle;whiteSpace=wrap;rounded=0;fontSize=22;" vertex="1" parent="1">
          <mxGeometry x="458.5" y="500" width="131" height="30" as="geometry" />
        </mxCell>
      </root>
    </mxGraphModel>
  </diagram>
</mxfile>
